<?xml version="1.0" standalone="no"?>
<!DOCTYPE svg PUBLIC "-//W3C//DTD SVG 20010904//EN"
 "http://www.w3.org/TR/2001/REC-SVG-20010904/DTD/svg10.dtd">
<svg version="1.0" xmlns="http://www.w3.org/2000/svg"
 width="228.000000pt" height="228.000000pt" viewBox="0 0 228.000000 228.000000"
 preserveAspectRatio="xMidYMid meet">
<g transform="translate(0.000000,228.000000) scale(0.100000,-0.100000)"
fill="#000000" stroke="none">
<path d="M922 2273 c-29 -3 -40 -8 -36 -16 5 -9 4 -9 -5 -1 -9 8 -24 9 -52 2
l-39 -10 0 -125 0 -125 -25 6 c-53 13 -73 26 -108 67 -41 48 -60 45 -34 -4 20
-37 75 -78 130 -98 l37 -13 0 -84 0 -84 -55 -91 c-32 -53 -69 -131 -87 -187
-28 -85 -31 -109 -34 -233 -2 -129 -4 -141 -27 -175 -71 -105 -86 -174 -45
-212 12 -11 30 -20 40 -20 15 0 16 -4 6 -27 -18 -48 -26 -105 -18 -134 6 -20
5 -29 -3 -30 -119 -8 -431 -100 -451 -132 -17 -27 7 -43 40 -28 24 11 98 29
207 51 l38 8 -76 -76 c-42 -41 -83 -89 -91 -105 -16 -30 -12 -63 6 -52 5 3 7
0 4 -8 -8 -22 115 -127 217 -186 100 -56 252 -112 316 -114 24 -1 43 -5 43 -8
0 -4 14 -9 31 -11 24 -4 38 2 63 24 17 16 47 40 68 54 35 24 38 25 67 10 27
-14 30 -14 25 -1 -4 8 -10 15 -15 15 -5 0 -9 5 -9 11 0 8 5 7 15 -1 13 -10 19
-10 34 4 13 12 21 14 26 6 3 -6 1 -9 -5 -8 -15 4 -24 -13 -43 -80 -14 -49 -14
-52 3 -52 10 0 22 5 25 10 8 13 58 13 72 -1 7 -7 34 -9 69 -6 33 3 91 7 129
10 66 5 122 15 208 38 30 8 41 18 61 57 33 63 93 132 117 132 16 0 19 -7 19
-49 0 -45 -2 -49 -27 -54 -16 -4 -41 -18 -58 -32 l-30 -26 35 14 c19 8 52 23
73 33 l39 19 -7 53 -7 54 54 -4 c29 -2 60 -8 69 -12 11 -5 30 6 62 37 26 24
47 48 47 52 0 4 9 16 21 26 12 10 18 23 13 30 -5 8 -3 9 6 4 10 -6 12 -4 7 8
-4 12 -2 14 10 10 13 -5 15 -2 10 11 -4 10 -3 15 3 11 6 -3 10 1 10 9 0 9 5
16 11 16 5 0 7 5 4 10 -3 6 -1 10 6 10 6 0 9 8 6 19 -3 13 0 18 7 15 8 -3 25
26 45 78 19 50 28 84 22 86 -7 2 -6 9 3 18 8 7 22 47 32 88 16 70 16 78 1 138
-36 134 -41 345 -12 459 17 65 20 149 5 149 -5 0 -10 -8 -11 -17 -2 -26 -18
46 -20 87 -3 57 -30 143 -52 168 -11 12 -17 22 -14 22 8 0 -20 47 -40 68 -11
11 -16 11 -29 -3 -9 -9 -13 -19 -10 -23 4 -3 11 0 16 7 7 12 11 12 23 -1 12
-11 13 -18 5 -26 -9 -9 -6 -18 8 -34 11 -14 5 -11 -13 6 -31 28 -34 28 -51 13
-17 -15 -18 -15 -17 7 0 13 6 30 14 40 8 9 11 20 7 23 -4 4 -11 1 -16 -7 -6
-8 -10 -10 -10 -4 0 13 32 44 46 44 5 0 2 -4 -6 -10 -8 -5 -11 -12 -7 -16 4
-4 12 -3 19 4 8 8 8 15 -2 27 -12 14 -15 14 -34 -2 l-21 -18 19 23 c11 12 16
25 12 29 -4 4 -12 1 -17 -7 -8 -12 -9 -11 -5 5 5 15 -5 31 -34 60 -39 38 -41
39 -58 21 -16 -18 -16 -19 1 -13 18 7 47 -1 47 -12 0 -4 -13 -8 -30 -8 -16 0
-30 4 -30 9 0 5 -4 6 -10 3 -6 -3 1 -17 16 -31 l25 -26 18 21 c21 24 40 29 21
6 -7 -9 -10 -19 -6 -22 4 -4 11 -2 15 5 5 8 8 1 8 -18 0 -16 -5 -30 -10 -30
-5 0 -3 -8 4 -17 13 -17 13 -17 -5 -3 -18 14 -18 13 -12 -10 5 -18 5 -21 -3
-10 -5 8 -13 11 -17 7 -4 -4 6 -21 22 -38 18 -19 23 -28 11 -24 -26 11 -20 -8
13 -40 29 -28 30 -28 50 -10 20 18 21 18 60 -20 22 -22 40 -43 40 -48 0 -5
-13 5 -29 22 -16 17 -31 31 -34 31 -3 0 -4 -16 -3 -35 3 -34 3 -35 -15 -19
-18 16 -21 16 -46 -7 -14 -13 -22 -17 -17 -9 20 35 12 68 -27 106 -21 21 -42
34 -46 30 -4 -4 -1 -12 7 -17 13 -9 13 -10 0 -6 -8 2 -14 14 -13 26 3 23 -12
29 -21 9 -3 -7 -4 -4 -1 8 7 29 -18 50 -35 29 -7 -9 -10 -19 -6 -22 4 -4 12
-1 17 7 9 12 10 11 5 -4 -4 -11 1 -28 11 -40 9 -12 -11 6 -45 39 -66 63 -69
67 -49 60 6 -3 19 0 27 5 13 8 13 11 -2 27 -10 9 -21 13 -25 9 -4 -4 -1 -11 7
-16 8 -6 11 -10 5 -10 -5 0 -26 17 -47 37 -21 20 -38 32 -38 26 0 -6 7 -16 15
-23 8 -7 15 -17 15 -22 0 -5 -14 2 -31 16 -17 14 -35 26 -40 26 -6 0 -7 5 -4
11 4 6 1 9 -6 8 -18 -4 -51 14 -119 64 -30 23 -57 42 -59 44 -4 3 26 33 33 33
3 0 5 -10 3 -22 -1 -17 3 -23 18 -24 39 -2 45 -4 45 -17 0 -21 55 -68 72 -62
9 4 22 -1 31 -9 18 -19 31 -21 21 -4 -4 6 -3 8 4 4 6 -3 13 -2 17 4 3 5 -1 10
-10 10 -9 0 -13 5 -9 11 4 7 10 7 16 1 7 -7 15 -6 26 4 8 8 11 18 8 22 -4 3
-11 0 -17 -8 -7 -13 -10 -13 -18 -1 -7 11 -9 11 -13 0 -3 -8 -9 -11 -13 -7 -4
4 -2 14 5 23 20 24 0 18 -21 -7 -11 -11 -22 -18 -26 -14 -12 12 42 57 60 50 9
-3 14 -10 11 -15 -3 -5 -1 -9 5 -9 5 0 12 6 14 13 4 9 7 9 15 -1 5 -7 16 -10
25 -6 9 3 17 2 17 -4 0 -6 -6 -12 -12 -14 -9 -3 -8 -9 4 -21 11 -11 19 -13 23
-7 5 8 11 8 19 1 7 -6 16 -8 19 -4 4 3 -1 12 -11 19 -12 9 -19 9 -24 1 -4 -6
-10 -8 -14 -4 -4 3 -1 14 6 22 12 14 15 13 37 -6 12 -13 23 -17 23 -11 0 7 -5
12 -11 12 -5 0 -7 5 -3 12 5 8 13 4 26 -12 10 -12 21 -20 24 -17 6 6 -1 14
-43 50 -19 17 -22 17 -37 1 -9 -9 -20 -14 -23 -10 -4 3 -2 11 5 18 16 16 -25
50 -50 42 -10 -3 -18 0 -18 7 0 8 -4 8 -15 -1 -13 -11 -15 -9 -13 10 2 13 -3
25 -12 27 -13 4 -13 3 0 -6 8 -5 11 -13 7 -17 -9 -10 -38 16 -31 28 15 24 -36
-14 -68 -51 -20 -23 -38 -41 -40 -41 -3 0 -5 14 -5 30 0 31 11 40 20 18 3 -8
6 -8 6 -2 1 15 -37 49 -46 41 -3 -4 -1 -7 5 -7 7 0 12 -5 12 -11 0 -6 -8 -8
-18 -5 -12 4 -28 -4 -46 -23 l-28 -30 -57 29 c-72 36 -187 70 -237 70 -90 -1
-218 -46 -259 -92 -31 -34 -27 -50 5 -20 18 16 25 18 35 9 11 -10 9 -17 -8
-37 -52 -58 -52 -58 -60 -36 -4 10 -1 13 7 10 15 -6 42 23 31 34 -4 4 -10 1
-12 -6 -4 -10 -8 -10 -20 -1 -12 10 -16 10 -24 -2 -5 -8 -9 -11 -9 -7 0 16 54
156 76 196 21 37 22 42 6 40 -9 -1 -36 -3 -60 -5z m804 -138 l26 -26 -44 -40
c-35 -32 -40 -41 -28 -49 8 -5 11 -12 8 -16 -4 -3 -19 6 -33 20 -14 14 -23 26
-19 26 3 0 2 6 -4 13 -8 10 -2 23 26 55 20 23 38 41 40 42 2 0 14 -11 28 -25z
m-140 -10 c14 -13 14 -17 -1 -31 -9 -9 -19 -13 -23 -10 -3 4 0 12 8 17 11 8
12 12 3 16 -13 5 -18 23 -7 23 3 0 12 -7 20 -15z m194 -15 c0 -5 -5 -10 -11
-10 -5 0 -7 -5 -4 -10 4 -7 14 -3 26 11 17 19 20 20 34 5 15 -14 15 -18 1 -31
-10 -10 -17 -12 -21 -4 -4 6 -13 8 -19 6 -20 -8 -37 8 -30 26 7 18 24 23 24 7z
m115 -40 c3 -5 -1 -10 -10 -10 -9 0 -13 5 -10 10 3 6 8 10 10 10 2 0 7 -4 10
-10z m-162 -64 c4 -10 1 -13 -9 -9 -7 3 -14 9 -14 14 0 14 17 10 23 -5z m237
-46 c0 -5 -4 -10 -10 -10 -5 0 -10 5 -10 10 0 6 5 10 10 10 6 0 10 -4 10 -10z
m-1050 -30 c0 -5 -2 -10 -4 -10 -3 0 -8 5 -11 10 -3 6 -1 10 4 10 6 0 11 -4
11 -10z m88 -74 c-7 -8 -15 -12 -17 -11 -5 6 10 25 20 25 5 0 4 -6 -3 -14z
m-50 -54 c-27 -29 -42 -62 -29 -62 5 0 12 -7 15 -16 3 -8 2 -12 -4 -9 -6 3
-10 1 -10 -5 0 -6 -7 -18 -15 -26 -19 -20 -19 -30 1 -38 8 -3 12 -2 9 4 -3 6
2 10 12 10 15 0 16 2 3 10 -11 7 -12 10 -2 10 8 0 34 20 58 46 44 44 81 54 44
11 -10 -12 -33 -49 -50 -82 -17 -33 -50 -83 -72 -112 -22 -29 -38 -56 -35 -60
2 -4 -3 -16 -13 -25 -16 -17 -17 -17 -15 0 1 9 4 24 7 32 3 8 13 39 23 68 9
29 14 56 11 60 -9 8 -26 -17 -26 -38 0 -8 -11 -27 -25 -42 -14 -15 -24 -31
-23 -35 1 -4 -4 -28 -12 -53 -7 -25 -13 -50 -13 -57 0 -7 -3 -10 -7 -8 -8 5
-6 88 3 101 3 6 8 28 10 50 3 23 9 50 15 60 5 10 17 34 26 52 10 17 14 37 11
42 -3 6 -2 10 2 10 5 0 28 26 53 58 57 73 64 81 69 76 3 -2 -7 -17 -21 -32z
m117 -19 c-9 -8 -18 -13 -21 -10 -8 8 19 36 29 30 4 -2 0 -11 -8 -20z m120
-43 c-10 -11 -15 -23 -12 -27 9 -8 -40 -74 -82 -109 l-35 -29 18 27 c10 15 17
31 17 35 -1 9 97 123 106 123 3 0 -2 -9 -12 -20z m338 8 c-4 -7 -9 -33 -9 -58
-3 -94 -4 -101 -14 -95 -23 14 -3 165 22 165 5 0 6 -6 1 -12z m84 -38 c6 -14
8 -22 12 -45 1 -5 6 -3 11 5 6 10 10 11 10 3 0 -7 -1 -15 -2 -17 -2 -2 4 -12
14 -22 9 -11 19 -36 23 -57 6 -32 4 -42 -16 -64 -16 -17 -20 -27 -12 -30 7 -2
9 -11 6 -19 -6 -17 -46 57 -52 95 0 4 -12 19 -25 33 -16 16 -26 39 -29 68 -4
44 -4 44 14 22 20 -26 28 -19 24 22 -4 35 7 72 13 41 2 -11 6 -27 9 -35z m376
22 c-1 -11 4 -26 12 -32 8 -7 15 -17 15 -22 0 -5 -11 2 -24 14 -17 17 -21 27
-13 36 5 7 6 16 2 20 -4 4 -10 1 -12 -5 -3 -7 -9 -13 -15 -13 -6 0 -5 6 2 15
17 21 36 13 33 -13z m-640 1 c-3 -10 -24 -37 -45 -60 -21 -24 -38 -48 -38 -54
0 -7 -2 -10 -5 -7 -10 10 24 75 56 106 38 37 41 38 32 15z m807 13 c0 -3 -4
-8 -10 -11 -5 -3 -10 -1 -10 4 0 6 5 11 10 11 6 0 10 -2 10 -4z m-669 -281
c11 -33 28 -74 37 -91 9 -17 27 -50 40 -73 12 -23 27 -39 32 -36 6 4 7 13 1
24 -13 23 -41 147 -40 174 1 19 2 19 9 -4 17 -58 83 -167 131 -216 28 -29 54
-53 57 -53 4 0 6 34 4 75 -3 51 -1 75 7 75 15 0 25 -29 44 -125 14 -72 22
-154 18 -195 0 -8 -13 8 -27 35 -15 28 -35 59 -45 71 -11 11 -16 24 -12 27 9
9 -45 56 -84 73 -34 15 -73 18 -110 8 -36 -10 -27 -26 10 -19 35 7 112 -9 121
-24 3 -5 -11 -3 -32 4 -24 8 -54 10 -85 5 -53 -8 -88 -30 -47 -30 21 0 20 -2
-13 -27 -56 -43 -49 -53 32 -46 73 6 97 -5 57 -27 -44 -23 -94 -151 -64 -163
8 -3 6 -6 -4 -6 -32 -2 -20 -31 12 -31 20 0 30 5 30 15 0 8 -6 15 -12 15 -9 0
-8 4 2 10 24 15 32 12 29 -12 -2 -13 1 -33 5 -45 10 -30 52 -30 84 0 21 19 24
19 19 4 -4 -10 -7 -25 -7 -32 0 -23 -36 -36 -80 -29 -25 4 -40 12 -40 21 0 21
-44 12 -48 -9 -4 -21 28 -36 91 -44 23 -2 43 -6 45 -8 7 -8 84 71 99 101 19
41 28 36 19 -12 -7 -35 -51 -94 -62 -82 -3 3 -18 -5 -32 -18 -23 -21 -24 -25
-10 -39 14 -14 18 -14 28 -1 17 20 33 19 53 -3 16 -17 15 -20 -8 -42 -14 -13
-25 -18 -25 -12 0 7 5 12 12 12 9 0 9 3 0 12 -8 8 -9 15 -1 25 9 10 8 13 -4
13 -21 0 -42 -27 -25 -33 10 -3 8 -10 -6 -26 -11 -11 -16 -24 -12 -28 4 -4 11
-2 15 5 6 10 11 10 21 -3 11 -13 10 -15 -4 -9 -19 7 -21 -6 -3 -25 10 -11 10
-13 0 -7 -7 4 -13 3 -13 -2 0 -5 12 -10 26 -10 15 0 21 4 15 8 -17 10 12 32
33 24 18 -7 22 -24 6 -24 -5 0 -10 5 -10 10 0 6 -5 10 -12 10 -8 0 -6 -6 5
-17 16 -16 18 -15 41 6 l25 23 -25 25 c-13 13 -24 27 -24 30 0 6 38 -24 53
-42 5 -6 6 -2 3 8 -3 10 0 25 8 33 8 7 16 17 18 21 2 5 23 26 48 48 40 37 42
38 25 10 -10 -16 -37 -47 -59 -67 -23 -21 -35 -38 -27 -38 11 0 11 -4 -2 -18
-10 -10 -17 -24 -17 -30 0 -7 -5 -12 -11 -12 -6 0 -4 -7 5 -15 17 -17 30 -20
21 -5 -3 6 1 10 10 10 9 0 13 -4 10 -10 -10 -16 5 -12 23 7 15 15 15 16 1 11
-9 -3 -22 -2 -30 3 -11 7 -10 9 4 9 11 0 15 5 11 11 -5 8 -1 8 14 0 12 -6 24
-16 27 -21 3 -6 12 -10 18 -10 8 0 7 4 -2 9 -25 16 5 41 44 36 42 -6 80 23 89
67 l8 33 10 -25 10 -25 15 35 c16 38 11 84 -12 110 -12 14 -11 19 9 44 15 19
27 26 36 21 18 -11 7 -169 -15 -201 -21 -32 -88 -76 -119 -78 -13 0 -22 -4
-20 -7 2 -4 -22 -15 -54 -25 -59 -19 -75 -22 -129 -26 -18 -1 -30 -4 -28 -7 7
-6 -113 -76 -182 -107 -90 -40 -286 -61 -412 -43 -82 12 -139 48 -226 141
-107 115 -134 196 -117 341 6 51 22 47 17 -5 -2 -24 -1 -37 4 -30 4 7 16 10
27 6 15 -5 16 -4 4 5 -8 5 -11 13 -7 17 3 4 12 2 19 -4 9 -7 17 -6 26 4 10 11
9 16 -8 26 -11 7 -20 16 -20 20 0 13 18 9 34 -8 9 -8 16 -11 16 -5 0 5 -8 14
-17 20 -14 8 -15 12 -4 25 20 24 4 19 -25 -8 l-26 -23 23 -16 c12 -9 20 -20
16 -24 -4 -4 -19 5 -33 20 -14 15 -28 27 -32 27 -4 0 -8 9 -9 20 -2 20 -2 20
15 1 17 -18 18 -18 48 14 l31 33 -28 30 c-16 17 -33 32 -40 34 -19 6 -21 106
-4 190 18 92 69 225 96 253 18 19 19 18 13 -50 -5 -53 -12 -76 -29 -95 -37
-41 -46 -67 -55 -158 -4 -48 -10 -96 -12 -106 -2 -10 4 -21 12 -23 13 -4 13
-3 0 6 -10 8 -12 13 -4 19 6 4 18 29 27 56 19 56 61 116 83 116 7 0 14 4 14 9
0 5 10 11 21 14 l21 6 -20 -22 c-27 -29 -50 -83 -56 -135 -4 -35 -2 -42 12
-43 12 0 9 -3 -7 -10 -17 -7 -21 -13 -14 -20 13 -13 48 -8 48 6 0 6 5 17 10
25 7 11 11 4 16 -30 7 -48 -1 -61 -32 -53 -22 6 -49 -13 -49 -33 0 -19 27 -17
73 4 53 23 86 102 97 227 4 50 8 80 8 67 1 -14 6 -20 13 -17 6 4 8 26 4 58 -6
48 -3 57 31 114 20 34 41 60 45 58 4 -3 10 7 13 21 4 14 53 71 109 127 l102
102 7 -100 c5 -55 17 -127 29 -160z m619 170 c24 22 27 13 4 -10 -24 -23 -8
-32 18 -9 13 10 10 5 -6 -14 -16 -17 -26 -35 -22 -39 4 -4 11 -1 16 7 6 9 10
10 10 3 0 -16 -15 -24 -32 -17 -7 3 -26 21 -42 40 -20 25 -23 32 -10 27 14 -5
16 -3 10 12 -7 18 -6 18 14 0 19 -17 21 -17 40 0z m-272 -75 c4 0 7 -14 8 -31
2 -39 24 -81 41 -75 7 3 13 0 14 -7 7 -100 4 -133 -12 -133 -10 0 -15 6 -12
14 4 9 0 12 -12 10 -21 -3 -30 22 -39 106 -3 29 -6 57 -7 62 -1 5 0 32 1 59 2
32 4 40 7 23 2 -16 7 -28 11 -28z m336 20 c-6 -6 -10 -3 -10 10 0 13 4 16 10
10 7 -7 7 -13 0 -20z m-996 -5 c-6 -14 -18 -25 -26 -25 -12 0 -10 6 8 25 13
14 25 25 27 25 1 0 -3 -11 -9 -25z m1003 -52 c13 -16 12 -17 -3 -4 -10 7 -18
15 -18 17 0 8 8 3 21 -13z m-1044 -1 c17 -11 -15 -122 -33 -115 -16 6 -19 -13
-4 -22 6 -3 10 -14 9 -23 0 -12 -2 -13 -6 -4 -3 8 -18 21 -33 30 l-28 17 36
63 c38 65 40 66 59 54z m1013 -6 c0 -2 -8 -10 -17 -17 -16 -13 -17 -12 -4 4
13 16 21 21 21 13z m-1447 -148 c-3 -140 -4 -144 -31 -172 l-27 -30 -3 73 c-2
45 3 94 13 129 16 55 46 142 49 142 1 0 1 -64 -1 -142z m1473 97 c-9 -9 -16
-13 -16 -8 0 12 22 34 28 28 2 -2 -3 -11 -12 -20z m22 -40 c-3 -3 -9 2 -12 12
-6 14 -5 15 5 6 7 -7 10 -15 7 -18z m-1351 -17 c-3 -8 -6 -5 -6 6 -1 11 2 17
5 13 3 -3 4 -12 1 -19z m933 -40 c0 -5 -4 -8 -10 -8 -5 0 -10 10 -10 23 0 18
2 19 10 7 5 -8 10 -18 10 -22z m233 -85 c-1 -20 -5 -43 -7 -50 -3 -7 -1 -15 5
-19 7 -4 6 -10 -1 -18 -5 -7 -7 -27 -4 -45 4 -18 2 -31 -4 -31 -13 0 -43 63
-32 70 5 3 11 18 14 33 2 14 7 31 11 37 3 5 0 10 -7 11 -10 0 -10 2 0 6 6 2
12 16 12 29 0 14 4 23 8 20 5 -3 7 -22 5 -43z m-914 -80 c0 -31 -2 -34 -9 -18
-12 28 -12 55 0 55 6 0 10 -17 9 -37z m-9 -75 c0 -5 -4 -8 -10 -8 -5 0 -10 10
-10 23 0 18 2 19 10 7 5 -8 10 -18 10 -22z m-367 -64 c-8 -32 -18 -78 -22
-101 l-6 -42 -48 21 c-31 14 -49 28 -53 43 -9 36 22 87 78 128 63 46 74 37 51
-49z m1260 29 c13 -27 22 -56 19 -67 -2 -10 0 -16 5 -13 5 3 9 -3 9 -13 0 -10
-4 -16 -8 -14 -4 3 -8 -2 -8 -10 0 -9 -5 -16 -11 -16 -5 0 -7 -4 -4 -10 3 -5
1 -10 -4 -10 -11 0 -15 12 -12 43 1 9 -3 17 -8 17 -6 0 -11 -5 -11 -11 0 -6
-7 -9 -14 -6 -11 4 -13 1 -9 -10 4 -11 2 -14 -5 -9 -6 4 -17 -5 -26 -21 -26
-48 -17 -10 19 83 19 49 35 95 35 101 0 23 9 13 33 -34z m-1103 -72 c0 -6 -4
-13 -10 -16 -5 -3 -10 1 -10 9 0 9 5 16 10 16 6 0 10 -4 10 -9z m30 -56 c-7
-8 -16 -15 -20 -15 -14 0 -21 32 -9 46 9 11 13 11 26 -2 12 -12 13 -18 3 -29z
m1243 26 c33 -14 46 -26 49 -45 5 -23 3 -26 -16 -20 -28 8 -96 52 -96 62 0 8
10 22 16 22 1 0 22 -9 47 -19z m-402 -54 c-5 -12 -12 -22 -16 -22 -13 0 -28
54 -20 73 6 15 8 15 25 -6 14 -16 17 -29 11 -45z m100 36 c-8 -15 -10 -15 -11
-2 0 17 10 32 18 25 2 -3 -1 -13 -7 -23z m-156 -71 c-11 -11 -25 15 -19 33 7
17 8 16 16 -5 5 -13 6 -25 3 -28z m-1032 -36 c4 -11 1 -13 -10 -9 -12 5 -15 2
-10 -10 4 -12 2 -14 -10 -10 -13 5 -15 2 -9 -13 5 -14 4 -16 -5 -7 -8 9 -7 17
7 37 22 29 30 32 37 12z m217 4 c0 -5 -4 -10 -10 -10 -5 0 -10 5 -10 10 0 6 5
10 10 10 6 0 10 -4 10 -10z m-99 -17 c20 -23 19 -59 -2 -59 -9 0 -15 5 -12 12
2 6 -3 17 -12 24 -14 12 -18 11 -26 -1 -5 -8 -9 -9 -9 -2 0 13 27 43 39 43 5
0 15 -7 22 -17z m-161 -57 c0 -2 -8 -10 -17 -17 -16 -13 -17 -12 -4 4 13 16
21 21 21 13z m102 -8 c-8 -8 -8 -15 -2 -23 7 -9 5 -17 -7 -26 -16 -13 -17 -12
-5 3 9 11 10 18 2 23 -5 3 -10 1 -10 -4 0 -6 -5 -11 -11 -11 -8 0 -9 4 0 13 6
8 7 18 3 22 -4 5 -2 5 5 1 6 -3 14 -2 18 4 3 5 9 10 13 10 3 0 1 -5 -6 -12z
m1137 -50 c-33 -42 -49 -58 -59 -58 -12 1 -52 41 -46 47 3 3 14 -3 24 -15 11
-12 22 -19 25 -16 3 4 -1 13 -9 21 -13 14 -12 17 12 29 14 8 31 14 36 14 5 0
16 7 25 15 30 31 25 5 -8 -37z m-1159 -23 c11 -13 10 -14 -4 -9 -9 3 -16 10
-16 15 0 13 6 11 20 -6z m1300 -5 c0 -13 -10 -24 -27 -31 -16 -6 -36 -15 -45
-20 -35 -18 -29 -8 18 31 27 21 50 39 52 40 1 0 2 -9 2 -20z m35 -50 c-3 -5
-12 -10 -18 -10 -7 0 -6 4 3 10 19 12 23 12 15 0z m-229 -57 c-6 -6 -45 37
-46 49 0 4 12 -4 26 -19 14 -14 23 -28 20 -30z m114 7 c0 -5 -4 -10 -9 -10 -6
0 -13 5 -16 10 -3 6 1 10 9 10 9 0 16 -4 16 -10z m125 -50 c3 -5 1 -10 -4 -10
-6 0 -11 5 -11 10 0 6 2 10 4 10 3 0 8 -4 11 -10z m45 6 c0 -3 -4 -8 -10 -11
-5 -3 -10 -1 -10 4 0 6 5 11 10 11 6 0 10 -2 10 -4z m-69 -35 c-8 -5 -10 -14
-6 -22 6 -11 5 -11 -5 -2 -14 12 -6 33 13 33 8 0 7 -3 -2 -9z m-73 -36 c-3 -3
-9 2 -12 12 -6 14 -5 15 5 6 7 -7 10 -15 7 -18z m-1556 -104 c-3 -43 2 -88 11
-120 17 -59 13 -67 -9 -16 -8 20 -19 33 -24 30 -6 -4 -7 -12 -4 -18 5 -9 4 -9
-5 -1 -24 22 -26 134 -2 120 4 -3 13 13 20 34 6 22 13 40 14 40 2 0 1 -31 -1
-69z m1318 55 c0 -2 -8 -10 -17 -17 -16 -13 -17 -12 -4 4 13 16 21 21 21 13z
m-1248 -114 c34 -64 42 -92 26 -92 -5 0 -8 -7 -5 -15 11 -27 -11 -25 -31 2
-27 38 -44 104 -38 150 7 56 8 60 13 35 3 -13 18 -49 35 -80z m1101 34 c-12
-16 -22 -21 -29 -15 -6 5 -20 7 -30 3 -18 -5 -18 -5 -1 6 9 6 22 8 27 5 6 -3
17 1 26 9 23 24 27 19 7 -8z m-775 -23 c-6 -7 -20 -13 -31 -13 -20 0 -20 1 3
25 17 18 26 22 31 13 4 -7 3 -18 -3 -25z m-289 -13 c0 -10 -3 -8 -9 5 -12 27
-12 43 0 25 5 -8 9 -22 9 -30z m948 -4 c-2 -6 -15 -11 -28 -11 -17 -1 -25 5
-25 17 0 22 1 22 21 2 21 -21 32 -10 14 13 -13 16 -12 17 4 4 10 -8 16 -19 14
-25z m-132 -8 c-1 -18 3 -36 9 -40 8 -6 8 -8 0 -8 -6 0 -17 7 -24 15 -9 10 -9
15 -1 15 6 0 11 5 11 11 0 6 -9 8 -22 3 -22 -6 -22 -6 2 14 14 12 25 21 26 22
0 0 0 -15 -1 -32z m215 12 c0 -5 -2 -10 -4 -10 -3 0 -8 5 -11 10 -3 6 -1 10 4
10 6 0 11 -4 11 -10z m98 -4 c-7 -8 -15 -13 -18 -11 -3 2 -14 -3 -25 -11 -10
-8 -16 -14 -12 -14 4 0 -6 -14 -23 -31 -28 -30 -29 -33 -12 -45 9 -7 19 -10
22 -7 3 3 -1 8 -7 10 -7 3 -13 9 -13 15 0 6 9 3 20 -7 20 -18 20 -18 0 -34
-66 -55 -84 -63 -92 -39 -3 9 -13 4 -29 -12 -13 -14 -21 -21 -16 -16 4 6 7 17
7 27 0 21 114 141 160 168 40 24 56 27 38 7z m-1069 -88 l23 -43 -39 39 c-21
22 -40 48 -40 59 -2 18 -1 18 16 3 9 -8 27 -35 40 -58z m878 16 c4 4 1 11 -6
16 -10 5 -6 8 12 7 15 -1 27 -2 27 -2 0 -1 -23 -23 -52 -50 -29 -28 -44 -40
-34 -28 10 12 15 26 11 32 -3 7 0 8 9 5 9 -3 16 -1 16 5 0 6 -4 11 -9 11 -5 0
-12 8 -15 17 -6 15 -4 15 14 -2 11 -10 23 -15 27 -11z m-642 -20 c0 -44 -30
-67 -51 -39 -7 10 -11 22 -8 27 3 5 2 7 -3 6 -4 -1 -19 4 -33 12 -25 15 -24
15 25 21 28 3 55 7 60 7 6 1 10 -14 10 -34z m526 10 c8 -9 14 -30 15 -45 l2
-29 -20 25 c-11 14 -16 30 -12 36 3 6 0 15 -7 20 -8 5 -9 9 -3 9 6 0 18 -7 25
-16z m-131 -29 c-7 -9 -10 -19 -6 -23 4 -4 16 4 27 17 10 13 19 20 19 16 0 -4
-8 -17 -18 -30 -17 -22 -20 -22 -35 -8 -15 15 -15 17 1 29 23 18 27 17 12 -1z
m-346 -36 c-10 -12 -32 -30 -47 -41 -27 -19 -28 -19 -25 -2 2 11 21 29 43 41
50 28 52 28 29 2z m324 -54 c-3 -3 -9 2 -12 12 -6 14 -5 15 5 6 7 -7 10 -15 7
-18z m169 -9 c4 -5 3 -6 -4 -2 -8 4 -24 -4 -38 -18 -14 -15 -27 -26 -28 -26
-3 0 -1 54 2 56 5 6 61 -3 68 -10z m-119 -52 c22 -14 22 -16 6 -28 -14 -11
-22 -10 -46 1 -16 8 -40 12 -53 9 -22 -6 -23 -5 -13 29 l11 34 36 -15 c20 -8
47 -22 59 -30z"/>
<path d="M1673 2116 c-16 -18 -19 -26 -10 -36 9 -10 9 -14 -1 -17 -6 -3 -10
-9 -7 -14 3 -5 22 7 41 26 31 31 33 37 20 50 -18 18 -16 19 -43 -9z m37 -2 c0
-3 -7 -12 -15 -21 -20 -19 -32 -10 -14 11 14 15 29 21 29 10z"/>
<path d="M1800 2090 c0 -5 5 -10 10 -10 6 0 10 5 10 10 0 6 -4 10 -10 10 -5 0
-10 -4 -10 -10z"/>
<path d="M1150 869 c0 -5 5 -7 10 -4 6 3 10 8 10 11 0 2 -4 4 -10 4 -5 0 -10
-5 -10 -11z"/>
<path d="M1614 736 c4 -11 1 -23 -6 -28 -9 -6 -5 -7 10 -3 13 4 22 2 22 -4 0
-6 -6 -11 -12 -11 -9 0 -9 -3 1 -9 12 -8 12 -12 2 -24 -9 -12 -9 -16 1 -20 11
-5 11 -7 0 -15 -18 -12 9 -35 32 -26 9 3 16 1 16 -5 0 -6 -5 -11 -12 -11 -6 0
-8 -3 -5 -6 4 -4 13 -1 22 6 13 11 13 15 -6 31 l-22 19 22 19 c18 15 19 20 7
30 -7 6 -22 9 -32 5 -16 -5 -16 -4 -4 5 13 10 13 12 0 21 -13 9 -13 11 0 19 8
6 11 13 7 18 -5 4 -12 1 -18 -7 -8 -13 -10 -13 -20 0 -9 12 -10 12 -5 -4z m46
-86 c0 -5 -4 -10 -10 -10 -5 0 -10 5 -10 10 0 6 5 10 10 10 6 0 10 -4 10 -10z
m0 -40 c0 -5 -4 -10 -10 -10 -5 0 -10 5 -10 10 0 6 5 10 10 10 6 0 10 -4 10
-10z"/>
<path d="M1133 668 c-12 -6 -24 -19 -26 -30 -8 -27 9 -67 30 -75 10 -4 21 -11
25 -16 3 -6 14 -11 25 -12 10 -1 28 -7 40 -13 31 -17 47 -15 71 11 29 31 28
62 -3 93 -47 47 -115 65 -162 42z m61 -77 c9 -10 14 -25 10 -35 -8 -20 -11
-20 -31 -1 -12 12 -13 19 -3 30 8 9 8 15 2 15 -6 0 -12 -6 -15 -12 -2 -7 -8
-9 -13 -5 -5 4 -2 12 6 17 21 13 25 13 44 -9z m47 -48 c12 -16 12 -17 -2 -6
-9 7 -20 9 -24 5 -5 -4 -5 -1 -1 6 9 16 11 15 27 -5z m29 7 c0 -5 -2 -10 -4
-10 -3 0 -8 5 -11 10 -3 6 -1 10 4 10 6 0 11 -4 11 -10z"/>
<path d="M1180 576 c0 -9 5 -16 10 -16 6 0 10 4 10 9 0 6 -4 13 -10 16 -5 3
-10 -1 -10 -9z"/>
<path d="M1706 553 c-10 -10 -7 -23 5 -23 5 0 7 5 4 10 -3 6 1 10 10 10 9 0
14 -4 11 -9 -3 -5 1 -12 10 -15 9 -4 13 -2 8 5 -4 6 -1 15 5 19 7 4 0 7 -17 8
-17 0 -33 -2 -36 -5z"/>
<path d="M2060 1614 c0 -10 31 -36 37 -31 3 3 -2 13 -10 22 -16 15 -27 19 -27
9z"/>
<path d="M750 854 c0 -10 31 -36 37 -31 3 3 -2 13 -10 22 -16 15 -27 19 -27 9z"/>
<path d="M1822 735 c-7 -8 -9 -15 -4 -15 5 0 15 7 22 15 16 19 -1 19 -18 0z"/>
<path d="M1310 220 c0 -5 5 -10 10 -10 6 0 10 5 10 10 0 6 -4 10 -10 10 -5 0
-10 -4 -10 -10z"/>
<path d="M1270 110 c0 -5 5 -10 10 -10 6 0 10 5 10 10 0 6 -4 10 -10 10 -5 0
-10 -4 -10 -10z"/>
<path d="M1637 2179 c6 -6 9 -19 5 -27 -5 -14 -4 -15 10 -2 12 12 13 17 2 27
-7 7 -16 13 -20 13 -5 0 -3 -5 3 -11z"/>
<path d="M1525 2150 c-26 -29 -15 -32 13 -4 12 13 19 24 14 24 -5 0 -17 -9
-27 -20z"/>
<path d="M1462 2136 c7 -8 15 -12 17 -11 5 6 -10 25 -20 25 -5 0 -4 -6 3 -14z"/>
<path d="M970 2070 c0 -5 5 -10 10 -10 6 0 10 5 10 10 0 6 -4 10 -10 10 -5 0
-10 -4 -10 -10z"/>
<path d="M1783 1999 l-21 -22 25 -25 c20 -20 27 -22 34 -11 8 12 10 12 18 0 8
-12 12 -12 25 2 9 9 12 18 7 21 -5 4 -12 0 -14 -6 -4 -10 -8 -9 -17 2 -9 11
-13 12 -17 3 -7 -19 -16 -16 -32 10 -13 20 -13 21 2 8 23 -18 54 4 36 25 -15
19 -21 18 -46 -7z"/>
<path d="M1901 2007 c-6 -8 -7 -17 -3 -22 4 -4 -3 -2 -15 6 -18 11 -25 11 -35
1 -6 -6 -8 -15 -4 -19 4 -4 11 -1 16 7 7 10 10 11 10 3 0 -7 8 -13 17 -13 13
0 12 -5 -8 -26 l-24 -25 63 -61 c35 -33 66 -57 69 -54 3 3 -9 20 -28 37 -25
24 -29 30 -13 25 14 -4 27 1 43 17 20 22 20 25 6 37 -14 12 -18 11 -26 -1 -8
-12 -10 -12 -18 1 -6 8 -13 11 -17 8 -3 -4 1 -15 11 -24 14 -14 18 -15 25 -3
5 7 12 10 16 6 11 -11 -3 -20 -35 -22 -21 -1 -28 2 -24 12 3 7 0 13 -6 13 -6
0 -11 -5 -11 -12 0 -6 -3 -8 -7 -5 -3 4 2 16 12 27 10 11 15 23 12 26 -4 4
-15 -4 -26 -17 -11 -13 -20 -20 -21 -16 0 5 7 15 16 24 8 9 13 21 10 29 -3 7
2 18 10 24 16 14 19 30 5 30 -5 0 -14 -6 -20 -13z"/>
<path d="M182 1873 c-28 -42 -31 -55 -21 -109 17 -93 111 -244 151 -244 44 0
128 72 162 139 21 39 21 87 0 95 -24 9 -73 7 -94 -4 -16 -9 -25 -1 -65 55 -71
100 -100 114 -133 68z m100 -99 c57 -83 47 -79 141 -58 16 4 27 2 27 -4 0 -17
-62 -93 -103 -126 l-38 -31 -19 25 c-61 79 -105 216 -86 265 8 23 19 14 78
-71z"/>
<path d="M1853 1883 c-7 -2 -13 -9 -13 -15 0 -6 7 -8 15 -5 8 4 17 1 21 -5 4
-7 3 -8 -4 -4 -7 4 -12 2 -12 -3 0 -14 13 -14 28 1 8 8 9 15 1 25 -12 14 -16
15 -36 6z"/>
<path d="M2040 1810 c0 -5 5 -10 10 -10 6 0 10 5 10 10 0 6 -4 10 -10 10 -5 0
-10 -4 -10 -10z"/>
<path d="M2080 1810 c0 -5 5 -10 10 -10 6 0 10 5 10 10 0 6 -4 10 -10 10 -5 0
-10 -4 -10 -10z"/>
<path d="M2061 1724 c-12 -14 -20 -28 -16 -32 3 -3 10 0 16 8 8 13 10 13 18 0
6 -8 13 -11 18 -7 4 5 1 13 -7 18 -11 8 -12 12 -2 16 13 5 17 23 5 22 -5 0
-19 -11 -32 -25z"/>
<path d="M631 1608 c-17 -36 -33 -77 -37 -92 -5 -20 -9 -24 -19 -16 -17 14
-20 9 -39 -67 -19 -72 -32 -229 -22 -267 14 -55 26 -23 28 72 1 86 2 90 7 37
l6 -60 13 66 c6 36 12 73 12 82 0 25 59 206 82 251 14 27 16 42 9 49 -7 7 -19
-9 -40 -55z m-64 -180 c-3 -8 -6 -5 -6 6 -1 11 2 17 5 13 3 -3 4 -12 1 -19z
m-10 -50 c-3 -8 -6 -5 -6 6 -1 11 2 17 5 13 3 -3 4 -12 1 -19z"/>
</g>
</svg>
